# xmcd CD database file
#
# Track frame offsets:
#	150
#	23065
#	41411
#	70784
#	90130
#	113795
#	136131
#	153568
#	169391
#	191331
#	228404
#	242105
#	271944
#	298216
#
# Disc length: 4266 seconds
#
# Revision: 0
# Processed by: cddbd v1.5.2PL0 Copyright (c) Steve Scherf et al.
# Submitted via: CDex 1.70beta2
#
DISCID=b810a80e
DTITLE=Various Artist - Best Of Smooth Jazz vo.4  CD 2
DYEAR=2009
DGENRE=Jazz
TTITLE0=Marcin Nowakowski - Wake Up
TTITLE1=Ledisi - You and Me
TTITLE2=Donna Summer - Winter Melody
TTITLE3=Toots Thielemans - That Old Black Magic
TTITLE4=David Sanborn - Don't Let Me Be Lonely Tonight
TTITLE5=Jazzkantine - Walk This Way
TTITLE6=Oh Laura - Killer On The Road
TTITLE7=Eliza Lumley - Creep
TTITLE8=Tape Five - Cocktail d'Amour (Sex On The Beach Mix)
TTITLE9=Grover Washington Jr. - It Feel So Good
TTITLE10=B.B.King - I Need You
TTITLE11=Oscar Peterson - Reunion Blues
TTITLE12=Stan Getz - Desafinado
TTITLE13=Chuck Mangione - Chase The Clouds Away
EXTD=YEAR: 2009
EXTT0=
EXTT1=
EXTT2=
EXTT3=
EXTT4=
EXTT5=
EXTT6=
EXTT7=
EXTT8=
EXTT9=
EXTT10=
EXTT11=
EXTT12=
EXTT13=
PLAYORDER=
